<?xml version="1.0" encoding="UTF-8"?>
<!DOCTYPE svg PUBLIC "-//W3C//DTD SVG 1.1//EN" "http://www.w3.org/Graphics/SVG/1.1/DTD/svg11.dtd">
<!-- Creator: CorelDRAW X7 -->
<svg xmlns="http://www.w3.org/2000/svg" xml:space="preserve" width="254mm" height="98.0838mm" version="1.1" style="shape-rendering:geometricPrecision; text-rendering:geometricPrecision; image-rendering:optimizeQuality; fill-rule:evenodd; clip-rule:evenodd"
viewBox="0 0 25400 9808"
 xmlns:xlink="http://www.w3.org/1999/xlink">
 <defs>
  <style type="text/css">
   <![CDATA[
    .fil4 {fill:#FEFEFE}
    .fil3 {fill:#172338}
    .fil2 {fill:#253858}
    .fil6 {fill:#2579B0}
    .fil5 {fill:#2C97DF}
    .fil1 {fill:#505D69}
    .fil0 {fill:#647483}
   ]]>
  </style>
 </defs>
 <g id="Layer_x0020_1">
  <metadata id="CorelCorpID_0Corel-Layer"/>
  <g id="_1420763885504">
   <path class="fil0" d="M1058 8344l13759 0 0 -1588 -14288 0 0 1059c0,291 238,529 529,529z"/>
   <polygon class="fil1" points="14670,8344 14817,8344 14817,6756 14670,6756 "/>
   <path class="fil2" d="M529 935l1342 0 935 -935 936 935 11604 0c291,0 529,239 529,530l0 4233c0,291 -238,529 -529,529l-14817 0c-291,0 -529,-238 -529,-529l0 -4233c0,-291 238,-530 529,-530z"/>
   <path class="fil3" d="M15875 3434l0 294 -529 0c-105,0 -201,43 -270,113 -69,69 -112,164 -112,269l0 2117 -294 0 0 -2117c0,-186 76,-355 198,-477 123,-123 292,-199 478,-199l529 0z"/>
   <path class="fil3" d="M2891 4490c286,0 520,-113 701,-339l373 384c-296,333 -644,499 -1046,499 -401,0 -731,-126 -991,-380 -259,-253 -389,-573 -389,-959 0,-387 132,-709 397,-967 264,-259 588,-388 970,-388 428,0 785,163 1074,488l-362 410c-184,-229 -412,-343 -686,-343 -218,0 -405,72 -560,214 -156,143 -233,336 -233,578 0,242 73,437 220,583 146,147 324,220 532,220zm2915 -2090l581 0 0 2604 -581 0 0 -1024 -1036 0 0 1024 -582 0 0 -2604 582 0 0 1088 1036 0 0 -1088zm987 0l581 0 0 2604 -581 0 0 -2604zm3101 864c0,418 -166,687 -496,809l660 931 -716 0 -578 -831 -402 0 0 831 -581 0 0 -2604 987 0c405,0 694,68 867,205 172,136 259,356 259,659zm-1107 406c199,0 334,-32 406,-97 72,-64 108,-167 108,-307 0,-140 -37,-237 -112,-289 -74,-52 -205,-78 -391,-78l-436 0 0 771 425 0zm2388 -1270c400,0 692,77 874,232 183,156 274,394 274,716 0,322 -94,557 -281,706 -188,149 -474,224 -859,224l-347 0 0 726 -581 0 0 -2604 920 0zm53 1375c193,0 325,-39 395,-118 69,-78 104,-192 104,-343 0,-150 -45,-257 -136,-320 -91,-63 -232,-95 -423,-95l-332 0 0 876 392 0zm2418 1229l-581 0 0 -1028 -902 -1576 630 0 562 968 563 -968 630 0 -902 1576 0 1028z"/>
   <path class="fil4" d="M2786 4384c285,0 519,-113 700,-339l373 384c-296,333 -644,499 -1045,499 -402,0 -732,-126 -992,-380 -259,-253 -389,-573 -389,-959 0,-387 132,-709 397,-967 264,-259 588,-388 971,-388 427,0 785,163 1073,488l-362 410c-183,-228 -412,-343 -685,-343 -219,0 -406,72 -561,215 -155,143 -233,335 -233,577 0,242 73,437 220,583 146,147 324,220 533,220zm2914 -2090l581 0 0 2605 -581 0 0 -1025 -1036 0 0 1025 -582 0 0 -2605 582 0 0 1088 1036 0 0 -1088zm987 0l582 0 0 2605 -582 0 0 -2605zm3101 864c0,418 -165,687 -496,809l660 932 -716 0 -577 -831 -403 0 0 831 -581 0 0 -2605 987 0c405,0 694,68 867,205 172,136 259,356 259,659zm-1107 407c199,0 334,-33 406,-97 72,-65 108,-167 108,-308 0,-140 -37,-236 -112,-289 -74,-52 -205,-78 -391,-78l-436 0 0 772 425 0zm2389 -1271c400,0 691,77 873,233 183,155 274,393 274,715 0,322 -93,557 -281,706 -188,149 -474,224 -859,224l-347 0 0 727 -581 0 0 -2605 921 0zm52 1375c194,0 325,-39 395,-118 69,-78 104,-192 104,-342 0,-151 -45,-258 -136,-321 -91,-63 -232,-95 -423,-95l-332 0 0 876 392 0zm2418 1230l-581 0 0 -1029 -902 -1576 630 0 563 969 562 -969 630 0 -902 1576 0 1029z"/>
   <path class="fil5" d="M15346 3581l9525 0c291,0 529,238 529,529l0 4234c0,291 -238,529 -529,529l-1342 0 -935 935 -936 -935 -6312 0c-291,0 -529,-238 -529,-529l0 -4234c0,-291 238,-529 529,-529z"/>
   <g>
    <polygon class="fil6" points="17115,6529 17577,5031 18184,5031 18643,6529 19161,5031 19790,5031 18881,7635 18449,7635 17879,5824 17312,7635 16880,7635 15971,5031 16601,5031 "/>
    <polygon class="fil6" points="21978,5031 21978,5549 20681,5549 20681,6085 21848,6085 21848,6581 20681,6581 20681,7121 22019,7121 22019,7635 20100,7635 20100,5031 "/>
    <path class="fil6" d="M23519 7635l-1141 0 0 -2604 1014 0c176,0 328,21 456,63 128,42 225,99 289,171 117,134 175,286 175,455 0,204 -66,355 -197,455 -45,34 -76,56 -93,65 -18,8 -49,23 -94,43 162,34 291,107 386,218 96,110 144,247 144,411 0,182 -62,342 -187,481 -144,162 -395,242 -752,242zm-559 -1550l275 0c162,0 282,-17 360,-52 78,-35 117,-110 117,-225 0,-116 -36,-192 -108,-230 -72,-37 -194,-56 -365,-56l-279 0 0 563zm0 1058l398 0c167,0 292,-20 375,-61 83,-41 125,-122 125,-242 0,-121 -44,-200 -133,-239 -88,-38 -229,-57 -423,-57l-342 0 0 599z"/>
   </g>
   <g>
    <polygon class="fil4" points="17009,6423 17471,4925 18078,4925 18537,6423 19055,4925 19685,4925 18775,7530 18343,7530 17773,5718 17206,7530 16774,7530 15865,4925 16495,4925 "/>
    <polygon class="fil4" points="21872,4925 21872,5443 20575,5443 20575,5979 21742,5979 21742,6475 20575,6475 20575,7015 21913,7015 21913,7530 19994,7530 19994,4925 "/>
    <path class="fil4" d="M23413 7530l-1141 0 0 -2605 1014 0c176,0 329,21 456,63 128,42 225,99 289,171 117,135 175,286 175,455 0,204 -65,355 -197,455 -45,35 -76,56 -93,65 -18,9 -49,23 -93,43 161,35 290,107 385,218 96,110 144,248 144,412 0,181 -62,341 -187,480 -144,162 -395,243 -752,243zm-559 -1551l275 0c162,0 282,-17 360,-52 78,-35 117,-110 117,-225 0,-116 -36,-192 -108,-230 -72,-37 -193,-55 -365,-55l-279 0 0 562zm0 1059l398 0c167,0 292,-21 375,-62 83,-41 125,-122 125,-242 0,-121 -44,-200 -132,-239 -89,-38 -230,-57 -423,-57l-343 0 0 600z"/>
   </g>
   <path class="fil4" d="M1323 7136c128,0 222,25 281,75 58,50 88,127 88,230 0,103 -31,179 -91,227 -60,48 -152,72 -276,72l-111 0 0 233 -187 0 0 -837 296 0zm16 442c63,0 105,-12 127,-38 23,-25 34,-61 34,-110 0,-48 -15,-82 -44,-103 -29,-20 -74,-30 -136,-30l-106 0 0 281 125 0zm720 179c31,39 73,58 126,58 53,0 94,-19 125,-58 31,-38 46,-91 46,-158l0 -463 187 0 0 469c0,121 -33,214 -100,279 -67,65 -153,98 -258,98 -105,0 -191,-33 -258,-98 -68,-66 -101,-159 -101,-279l0 -469 187 0 0 463c0,67 15,120 46,158zm948 -476c-31,0 -56,8 -74,22 -18,15 -27,35 -27,59 0,24 11,44 33,58 22,14 73,31 152,51 80,20 141,49 185,88 44,39 66,96 66,171 0,75 -28,136 -84,183 -57,47 -131,70 -222,70 -133,0 -252,-49 -359,-147l112 -137c90,79 173,119 250,119 34,0 61,-8 81,-22 20,-15 29,-35 29,-60 0,-25 -10,-45 -31,-60 -21,-15 -62,-30 -123,-45 -98,-23 -169,-53 -214,-91 -45,-37 -68,-95 -68,-174 0,-80 29,-141 86,-184 57,-43 128,-65 214,-65 56,0 112,10 167,29 56,19 105,46 147,81l-95 137c-73,-55 -148,-83 -225,-83zm1014 -145l187 0 0 837 -187 0 0 -329 -333 0 0 329 -187 0 0 -837 187 0 0 350 333 0 0 -350zm1295 0l187 0 0 837 -187 0 -399 -524 0 524 -187 0 0 -837 175 0 411 539 0 -539zm1034 414c0,-75 -24,-138 -72,-191 -48,-53 -107,-79 -177,-79 -70,0 -128,26 -176,79 -48,53 -72,116 -72,191 0,75 24,138 72,190 48,53 106,79 176,79 70,0 129,-26 177,-79 48,-52 72,-115 72,-190zm63 308c-84,83 -188,124 -312,124 -124,0 -228,-41 -313,-124 -85,-83 -127,-186 -127,-309 0,-123 42,-225 127,-308 85,-83 189,-124 313,-124 124,0 228,41 312,124 85,83 127,185 127,308 0,123 -42,226 -127,309zm617 -560l0 675 -187 0 0 -675 -237 0 0 -162 661 0 0 162 -237 0zm374 -162l187 0 0 837 -187 0 0 -837zm968 0l0 164 -388 0 0 181 369 0 0 164 -369 0 0 328 -187 0 0 -837 575 0zm158 0l187 0 0 837 -187 0 0 -837zm777 672c92,0 167,-36 226,-109l119 124c-95,107 -207,160 -336,160 -129,0 -235,-41 -318,-122 -84,-82 -125,-184 -125,-309 0,-124 42,-227 127,-310 85,-83 189,-125 312,-125 137,0 252,52 345,157l-116 132c-59,-74 -133,-111 -220,-111 -71,0 -131,23 -181,69 -50,46 -75,108 -75,186 0,78 24,140 71,187 47,48 104,71 171,71zm1083 165l-78 -180 -351 0 -78 180 -198 0 361 -837 181 0 362 837 -199 0zm-253 -588l-105 243 210 0 -105 -243zm843 -87l0 675 -187 0 0 -675 -238 0 0 -162 662 0 0 162 -237 0zm373 -162l187 0 0 837 -187 0 0 -837zm1034 414c0,-75 -24,-138 -72,-191 -48,-53 -107,-79 -177,-79 -69,0 -128,26 -176,79 -48,53 -72,116 -72,191 0,75 24,138 72,190 48,53 107,79 176,79 70,0 129,-26 177,-79 48,-52 72,-115 72,-190zm63 308c-84,83 -188,124 -312,124 -124,0 -228,-41 -313,-124 -84,-83 -127,-186 -127,-309 0,-123 43,-225 127,-308 85,-83 189,-124 313,-124 124,0 228,41 312,124 85,83 127,185 127,308 0,123 -42,226 -127,309zm871 -722l187 0 0 837 -187 0 -399 -524 0 524 -186 0 0 -837 174 0 411 539 0 -539zm663 145c-31,0 -56,8 -74,22 -18,15 -27,35 -27,59 0,24 11,44 33,58 22,14 73,31 152,51 80,20 141,49 185,88 44,39 66,96 66,171 0,75 -28,136 -84,183 -57,47 -131,70 -223,70 -132,0 -252,-49 -358,-147l112 -137c90,79 173,119 250,119 34,0 61,-8 81,-22 19,-15 29,-35 29,-60 0,-25 -10,-45 -31,-60 -21,-15 -62,-30 -123,-45 -98,-23 -169,-53 -214,-91 -45,-37 -68,-95 -68,-174 0,-80 29,-141 86,-184 57,-43 128,-65 214,-65 56,0 111,10 167,29 56,19 105,46 146,81l-94 137c-73,-55 -148,-83 -225,-83z"/>
  </g>
 </g>
</svg>
